<svg xmlns="http://www.w3.org/2000/svg" width="32" height="32" viewBox="0 0 36 36" fill="none">
  <path d="M18.864 24.9156H27.72C29.3328 24.9156 30.6 23.6322 30.6 22.0968V10.0188C30.6 8.48342 29.3328 7.20002 27.72 7.20002H8.28001C6.66721 7.20002 5.40001 8.48342 5.40001 10.0188V22.0968C5.40001 23.6322 6.66721 24.9156 8.28001 24.9156H11.16V30.6H11.1654L11.169 30.5982L18.864 24.9156ZM12.24 32.0454C11.8567 32.3274 11.378 32.4479 10.9069 32.3809C10.4357 32.3139 10.0096 32.0649 9.72001 31.6872C9.48833 31.3816 9.36258 31.0088 9.36181 30.6252V26.7156H8.28181C5.69701 26.7156 3.60181 24.6474 3.60181 22.0968V10.0188C3.60001 7.46822 5.69521 5.40002 8.28001 5.40002H27.72C30.3048 5.40002 32.4 7.46822 32.4 10.0188V22.0968C32.4 24.6492 30.3048 26.7156 27.72 26.7156H19.458L12.24 32.0454Z" fill="#afafaf"/>
</svg>