<svg xmlns="http://www.w3.org/2000/svg" width="20" height="22" viewBox="0 0 24 24" fill="none">
  <path d="M5.78582 2.57141C4.93334 2.57141 4.11577 2.91006 3.51298 3.51285C2.91018 4.11565 2.57153 4.93322 2.57153 5.7857V18.2143C2.57153 19.0668 2.91018 19.8843 3.51298 20.4871C4.11577 21.0899 4.93334 21.4286 5.78582 21.4286H18.2144C19.0669 21.4286 19.8844 21.0899 20.4872 20.4871C21.09 19.8843 21.4287 19.0668 21.4287 18.2143V5.7857C21.4287 4.93322 21.09 4.11565 20.4872 3.51285C19.8844 2.91006 19.0669 2.57141 18.2144 2.57141H5.78582ZM3.85725 5.7857C3.85725 5.27421 4.06044 4.78367 4.42211 4.42199C4.78379 4.06031 5.27433 3.85713 5.78582 3.85713H11.5715V8.14284H3.85725V5.7857ZM3.85725 9.42855H11.5715V20.1428H5.78582C5.27433 20.1428 4.78379 19.9397 4.42211 19.578C4.06044 19.2163 3.85725 18.7258 3.85725 18.2143V9.42855ZM12.8572 20.1428V15.4286H20.143V18.2143C20.143 18.7258 19.9398 19.2163 19.5781 19.578C19.2164 19.9397 18.7259 20.1428 18.2144 20.1428H12.8572ZM20.143 14.1428H12.8572V3.85713H18.2144C18.7259 3.85713 19.2164 4.06031 19.5781 4.42199C19.9398 4.78367 20.143 5.27421 20.143 5.7857V14.1428Z" fill="current"/>
</svg>