<svg xmlns="http://www.w3.org/2000/svg" width="18" height="24" viewBox="0 0 18 24" fill="none">
  <path d="M20.592 12.5H9.654C9.512 12.5 9.393 12.4523 9.297 12.357C9.20167 12.2617 9.154 12.1427 9.154 12C9.154 11.8573 9.20167 11.7383 9.297 11.643C9.39233 11.5477 9.51133 11.5 9.654 11.5H20.592L18.858 9.766C18.76 9.668 18.709 9.553 18.705 9.421C18.701 9.289 18.752 9.168 18.858 9.058C18.968 8.94733 19.0867 8.891 19.214 8.889C19.342 8.887 19.461 8.94133 19.571 9.052L21.954 11.434C22.1153 11.596 22.196 11.7847 22.196 12C22.196 12.2153 22.1153 12.4037 21.954 12.565L19.571 14.948C19.4737 15.0453 19.358 15.0963 19.224 15.101C19.09 15.1057 18.968 15.0527 18.858 14.942C18.7513 14.832 18.697 14.714 18.695 14.588C18.693 14.462 18.7473 14.3443 18.858 14.235L20.592 12.5ZM15.404 8.23V5.617C15.404 5.437 15.3463 5.28933 15.231 5.174C15.1157 5.05867 14.9683 5.00067 14.789 5H5.616C5.436 5 5.28833 5.05767 5.173 5.173C5.05767 5.28833 5 5.436 5 5.616V18.385C5 18.5643 5.05767 18.7117 5.173 18.827C5.28833 18.9423 5.436 19 5.616 19H14.789C14.9683 19 15.1157 18.9423 15.231 18.827C15.3463 18.7117 15.404 18.5643 15.404 18.385V15.769C15.404 15.627 15.4517 15.508 15.547 15.412C15.643 15.3167 15.762 15.269 15.904 15.269C16.046 15.269 16.165 15.3167 16.261 15.412C16.357 15.5073 16.4047 15.6263 16.404 15.769V18.384C16.404 18.832 16.2467 19.2133 15.932 19.528C15.6167 19.8427 15.2353 20 14.788 20H5.616C5.168 20 4.78667 19.8427 4.472 19.528C4.15733 19.2133 4 18.8323 4 18.385V5.615C4 5.16833 4.15733 4.78733 4.472 4.472C4.78667 4.15733 5.168 4 5.616 4H14.789C15.2357 4 15.6167 4.15733 15.932 4.472C16.2467 4.78667 16.404 5.16767 16.404 5.615V8.231C16.404 8.373 16.3563 8.492 16.261 8.588C16.1657 8.684 16.0467 8.73167 15.904 8.731C15.7613 8.73033 15.6423 8.68267 15.547 8.588C15.4517 8.492 15.404 8.373 15.404 8.231" fill="black"/>
</svg>