<svg xmlns="http://www.w3.org/2000/svg" width="22" height="22" viewBox="0 0 24 24" fill="none">
  <path d="M10 3.5C8.03601 3.5 6.42101 5.055 6.42101 7C6.42101 8.945 8.03601 10.5 10.001 10.5C11.655 10.5 13.061 9.397 13.464 7.887C13.6415 8.49213 14.0294 9.01391 14.5577 9.35819C15.086 9.70247 15.72 9.84657 16.3453 9.7645C16.9705 9.68243 17.5458 9.37959 17.9674 8.91062C18.389 8.44165 18.6291 7.83744 18.6444 7.20702C18.6597 6.57659 18.4491 5.96146 18.0507 5.47263C17.6523 4.9838 17.0923 4.65346 16.4718 4.54121C15.8513 4.42896 15.211 4.5422 14.6666 4.86049C14.1223 5.17879 13.7096 5.68117 13.503 6.277C13.16 4.682 11.713 3.5 10 3.5ZM7.42101 7C7.42101 5.631 8.56401 4.5 10.001 4.5C11.437 4.5 12.579 5.631 12.579 7C12.579 8.369 11.437 9.5 10 9.5C8.56401 9.5 7.42101 8.369 7.42101 7ZM14.357 7.143C14.357 6.70725 14.5301 6.28935 14.8382 5.98122C15.1464 5.6731 15.5643 5.5 16 5.5C16.4358 5.5 16.8537 5.6731 17.1618 5.98122C17.4699 6.28935 17.643 6.70725 17.643 7.143C17.643 7.57875 17.4699 7.99665 17.1618 8.30478C16.8537 8.6129 16.4358 8.786 16 8.786C15.5643 8.786 15.1464 8.6129 14.8382 8.30478C14.5301 7.99665 14.357 7.57875 14.357 7.143ZM8.15001 11.917C7.78301 11.68 7.27601 11.511 6.75601 11.654C6.59601 11.6987 6.43668 11.746 6.27801 11.796L5.29301 12.112C4.13801 12.482 3.24901 13.396 2.94801 14.55L2.94101 14.577L2.52401 17.514C2.37201 18.586 2.96301 19.67 4.11201 19.937C5.29001 20.21 7.20001 20.5 10 20.5C12.8 20.5 14.71 20.21 15.888 19.937C17.038 19.67 17.628 18.586 17.476 17.514L17.059 14.577L17.052 14.55C16.752 13.396 15.862 12.481 14.707 12.112L13.723 11.796C13.5643 11.7453 13.4046 11.698 13.244 11.654C12.724 11.511 12.217 11.68 11.851 11.917C11.457 12.171 10.806 12.486 10.001 12.486C9.19601 12.486 8.54301 12.172 8.15001 11.917ZM7.02101 12.617C7.17601 12.574 7.38801 12.614 7.60701 12.755C8.09601 13.072 8.93601 13.485 10 13.485C11.065 13.485 11.905 13.072 12.394 12.755C12.612 12.615 12.824 12.575 12.979 12.617C13.1257 12.657 13.272 12.7003 13.418 12.747L14.402 13.063C15.235 13.33 15.86 13.978 16.077 14.774L16.487 17.654C16.577 18.29 16.234 18.829 15.662 18.962C14.565 19.216 12.732 19.499 10 19.499C7.26801 19.499 5.43601 19.216 4.33801 18.962C3.76701 18.829 3.42401 18.29 3.51401 17.654L3.92401 14.774C4.14001 13.978 4.76401 13.33 5.59801 13.063L6.58301 12.748C6.72835 12.7013 6.87435 12.658 7.02101 12.618M18.183 10.298C18.0254 10.2587 17.8609 10.2565 17.7023 10.2915C17.5437 10.3266 17.3954 10.3979 17.269 10.5C16.999 10.71 16.521 11 16 11C15.8674 11 15.7402 11.0527 15.6465 11.1464C15.5527 11.2402 15.5 11.3674 15.5 11.5C15.5 11.6326 15.5527 11.7598 15.6465 11.8536C15.7402 11.9473 15.8674 12 16 12C16.858 12 17.556 11.543 17.883 11.29C17.8951 11.2785 17.9099 11.2703 17.926 11.266H17.93C18.064 11.3013 18.197 11.3407 18.329 11.384L19.014 11.609C19.54 11.782 19.939 12.203 20.08 12.723L20.363 14.772C20.419 15.175 20.207 15.477 19.903 15.549C19.6797 15.6037 19.4087 15.657 19.09 15.709C19.0251 15.7195 18.963 15.7427 18.9071 15.7772C18.8511 15.8117 18.8026 15.857 18.7641 15.9103C18.7257 15.9636 18.6981 16.0239 18.683 16.0879C18.6679 16.1518 18.6655 16.2181 18.676 16.283C18.6865 16.3479 18.7097 16.41 18.7442 16.466C18.7788 16.5219 18.824 16.5704 18.8773 16.6089C18.9306 16.6473 18.9909 16.6749 19.0549 16.69C19.1188 16.7051 19.1851 16.7075 19.25 16.697C19.5913 16.6403 19.886 16.582 20.134 16.522C21.029 16.309 21.467 15.452 21.354 14.635L21.063 12.529L21.056 12.502C20.9465 12.0738 20.7305 11.6803 20.428 11.3581C20.1255 11.0358 19.7464 10.7953 19.326 10.659L18.641 10.434C18.4897 10.3841 18.337 10.3388 18.183 10.298Z" fill="current"/>
</svg>