<svg xmlns="http://www.w3.org/2000/svg" width="15" height="16" viewBox="0 0 15 16" fill="none">
  <path d="M5.96115 0.5C4.40002 0.5 3.11631 1.87206 3.11631 3.58824C3.11631 5.30441 4.40002 6.67647 5.96194 6.67647C7.27666 6.67647 8.39424 5.70324 8.71458 4.37088C8.85563 4.90482 9.16395 5.36521 9.58391 5.66899C10.0039 5.97276 10.5078 6.09992 11.0048 6.0275C11.5018 5.95508 11.9591 5.68787 12.2942 5.27408C12.6293 4.86028 12.8202 4.32715 12.8323 3.7709C12.8444 3.21464 12.6771 2.67188 12.3604 2.24056C12.0437 1.80924 11.5986 1.51776 11.1054 1.41871C10.6121 1.31967 10.1032 1.41959 9.67051 1.70044C9.2378 1.98128 8.90975 2.42456 8.74558 2.95029C8.47294 1.54294 7.32276 0.5 5.96115 0.5ZM3.91118 3.58824C3.91118 2.38029 4.81971 1.38235 5.96194 1.38235C7.10338 1.38235 8.01112 2.38029 8.01112 3.58824C8.01112 4.79618 7.10338 5.79412 5.96115 5.79412C4.81971 5.79412 3.91118 4.79618 3.91118 3.58824ZM9.4244 3.71441C9.4244 3.32993 9.56199 2.96119 9.80691 2.68931C10.0518 2.41744 10.384 2.26471 10.7304 2.26471C11.0767 2.26471 11.4089 2.41744 11.6538 2.68931C11.8987 2.96119 12.0363 3.32993 12.0363 3.71441C12.0363 4.0989 11.8987 4.46764 11.6538 4.73951C11.4089 5.01138 11.0767 5.16412 10.7304 5.16412C10.384 5.16412 10.0518 5.01138 9.80691 4.73951C9.56199 4.46764 9.4244 4.0989 9.4244 3.71441ZM4.49064 7.92676C4.19892 7.71765 3.79592 7.56853 3.38259 7.69471C3.25541 7.73412 3.12876 7.77588 3.00264 7.82L2.21969 8.09882C1.30162 8.42529 0.594979 9.23176 0.355723 10.25L0.350159 10.2738L0.0186982 12.8653C-0.102122 13.8112 0.367646 14.7676 1.28095 15.0032C2.21731 15.2441 3.73551 15.5 5.96115 15.5C8.18678 15.5 9.70498 15.2441 10.6413 15.0032C11.5554 14.7676 12.0244 13.8112 11.9036 12.8653L11.5721 10.2738L11.5666 10.25C11.3281 9.23176 10.6207 8.42441 9.7026 8.09882L8.92045 7.82C8.79433 7.77531 8.66739 7.73353 8.53971 7.69471C8.12637 7.56853 7.72337 7.71765 7.43245 7.92676C7.11927 8.15088 6.60181 8.42882 5.96194 8.42882C5.32207 8.42882 4.80302 8.15176 4.49064 7.92676ZM3.59323 8.54441C3.71643 8.50647 3.88495 8.54176 4.05902 8.66618C4.44771 8.94588 5.11541 9.31029 5.96115 9.31029C6.80768 9.31029 7.47537 8.94588 7.86407 8.66618C8.03735 8.54265 8.20586 8.50735 8.32906 8.54441C8.44565 8.57971 8.56196 8.61794 8.67801 8.65912L9.46016 8.93794C10.1223 9.17353 10.6191 9.74529 10.7916 10.4476L11.1175 12.9888C11.189 13.55 10.9164 14.0256 10.4617 14.1429C9.58973 14.3671 8.13273 14.6168 5.96115 14.6168C3.78956 14.6168 2.33336 14.3671 1.46059 14.1429C1.00672 14.0256 0.734081 13.55 0.80562 12.9888L1.13152 10.4476C1.30321 9.74529 1.79921 9.17353 2.46213 8.93794L3.24508 8.66C3.3606 8.61882 3.47665 8.58059 3.59323 8.54529M12.4656 6.49824C12.3403 6.46354 12.2095 6.46159 12.0834 6.49251C11.9574 6.52344 11.8395 6.58641 11.7391 6.67647C11.5244 6.86176 11.1445 7.11765 10.7304 7.11765C10.625 7.11765 10.5239 7.16413 10.4493 7.24686C10.3748 7.3296 10.3329 7.44182 10.3329 7.55882C10.3329 7.67583 10.3748 7.78805 10.4493 7.87078C10.5239 7.95352 10.625 8 10.7304 8C11.4124 8 11.9672 7.59676 12.2271 7.37353C12.2367 7.36342 12.2485 7.35614 12.2613 7.35235H12.2645C12.371 7.38353 12.4767 7.41824 12.5816 7.45647L13.1261 7.655C13.5442 7.80765 13.8614 8.17912 13.9734 8.63794L14.1984 10.4459C14.2429 10.8015 14.0744 11.0679 13.8327 11.1315C13.6552 11.1797 13.4398 11.2268 13.1865 11.2726C13.135 11.2819 13.0855 11.3024 13.0411 11.3328C12.9966 11.3633 12.958 11.4032 12.9275 11.4502C12.8969 11.4973 12.875 11.5505 12.863 11.6069C12.851 11.6634 12.8491 11.7219 12.8574 11.7791C12.8658 11.8364 12.8842 11.8912 12.9117 11.9405C12.9391 11.9899 12.975 12.0327 13.0174 12.0667C13.0598 12.1006 13.1078 12.1249 13.1586 12.1382C13.2094 12.1516 13.2621 12.1537 13.3137 12.1444C13.585 12.0944 13.8192 12.0429 14.0164 11.99C14.7278 11.8021 15.0759 11.0459 14.9861 10.325L14.7548 8.46677L14.7492 8.44294C14.6622 8.06514 14.4905 7.71792 14.25 7.43359C14.0096 7.14926 13.7083 6.93707 13.3741 6.81677L12.8296 6.61824C12.7094 6.57422 12.588 6.5342 12.4656 6.49824Z" fill="#444444"/>
</svg>