<svg xmlns="http://www.w3.org/2000/svg" width="30" height="30" viewBox="0 0 30 30" fill="none">
  <path d="M25.74 15.625H11.4425V14.375H25.74L23.13 11.7638L24.0138 10.865L28.15 15L24.0162 19.135L23.1312 18.235L25.74 15.625ZM19.255 10.9125V7.02125C19.255 6.79625 19.1829 6.61167 19.0387 6.4675C18.8946 6.32333 18.7104 6.25083 18.4862 6.25H7.02C6.795 6.25 6.61042 6.32208 6.46625 6.46625C6.32208 6.61042 6.25 6.795 6.25 7.02V22.9813C6.25 23.2054 6.32208 23.3896 6.46625 23.5337C6.61042 23.6779 6.795 23.75 7.02 23.75H18.4862C18.7104 23.75 18.8946 23.6779 19.0387 23.5337C19.1829 23.3896 19.255 23.2054 19.255 22.9813V19.0863H20.505V22.98C20.505 23.54 20.3083 24.0167 19.915 24.41C19.5208 24.8033 19.0442 25 18.485 25H7.02C6.46 25 5.98333 24.8033 5.59 24.41C5.19667 24.0167 5 23.5404 5 22.9813V7.01875C5 6.46042 5.19667 5.98417 5.59 5.59C5.98333 5.19667 6.46 5 7.02 5H18.4862C19.0446 5 19.5208 5.19667 19.915 5.59C20.3083 5.98333 20.505 6.45958 20.505 7.01875V10.9137L19.255 10.9125Z" fill="black"/>
</svg>