<svg xmlns="http://www.w3.org/2000/svg" width="24" height="24" viewBox="0 0 24 24" fill="none">
  <path d="M6 20V6C6 5.45 6.196 4.97933 6.588 4.588C6.98 4.19667 7.45067 4.00067 8 4H15.45C15.7833 4 16.0917 4.075 16.375 4.225C16.6583 4.375 16.8917 4.58333 17.075 4.85L19.2 7.85C19.4333 8.2 19.55 8.58333 19.55 9C19.55 9.41667 19.4333 9.8 19.2 10.15L17.075 13.15C16.8917 13.4167 16.6583 13.625 16.375 13.775C16.0917 13.925 15.7833 14 15.45 14H8V20C8 20.2833 7.904 20.521 7.712 20.713C7.52 20.905 7.28267 21.0007 7 21C6.71733 20.9993 6.48 20.9033 6.288 20.712C6.096 20.5207 6 20.2833 6 20Z" fill="#F0CA32"/>
</svg>