<svg xmlns="http://www.w3.org/2000/svg" width="36" height="36" viewBox="0 0 24 24" fill="none">
  <path d="M8.4 5.25C5.62 5.25 3.25 7.33 3.25 10.03C3.25 11.893 4.122 13.461 5.278 14.76C6.431 16.055 7.918 17.142 9.261 18.052L11.58 19.622C11.704 19.7058 11.8503 19.7506 12 19.7506C12.1497 19.7506 12.296 19.7058 12.42 19.622L14.739 18.052C16.083 17.142 17.569 16.055 18.721 14.76C19.878 13.461 20.75 11.893 20.75 10.03C20.75 7.33 18.38 5.25 15.6 5.25C14.166 5.25 12.905 5.922 12 6.792C11.095 5.922 9.833 5.25 8.4 5.25Z" stroke="current" fill="current"/>
</svg>