<svg xmlns="http://www.w3.org/2000/svg" width="13" height="13" viewBox="0 0 13 13" fill="none">
  <path d="M6.5 2V11C4.75 11 3.44975 8.71 3.44975 8.71H2C1.86739 8.71 1.74021 8.65732 1.64645 8.56355C1.55268 8.46979 1.5 8.34261 1.5 8.21V4.7525C1.5 4.61989 1.55268 4.49271 1.64645 4.39895C1.74021 4.30518 1.86739 4.2525 2 4.2525H3.44975C3.44975 4.2525 4.75 2 6.5 2Z" stroke="black" stroke-linejoin="round"/>
  <path d="M8.5 4.25C8.65618 4.38978 8.79729 4.54555 8.921 4.71475C9.29886 5.23316 9.50167 5.8585 9.5 6.5C9.5 7.1635 9.2885 7.77675 8.9305 8.2725C8.80452 8.44663 8.66019 8.60671 8.5 8.75" stroke="black" stroke-linecap="round" stroke-linejoin="round"/>
  <path d="M9.05908 10.7965C10.5211 9.924 11.5001 8.32625 11.5001 6.5C11.5001 4.702 10.5511 3.126 9.12683 2.245" stroke="black" stroke-linecap="round"/>
</svg>