<svg xmlns="http://www.w3.org/2000/svg" width="22" height="22" viewBox="0 0 22 22" fill="none">
  <path d="M14.4828 14.2085C15.3264 13.7396 15.2171 11.9329 14.2394 10.1701C13.8201 9.41113 13.3044 8.79651 12.7888 8.36682C12.1722 8.82436 11.4254 9.07251 10.6576 9.07495C9.88859 9.07325 9.14042 8.82506 8.52288 8.36682C8.00726 8.79651 7.49301 9.41182 7.07226 10.1701C6.09394 11.9322 5.98601 13.7396 6.83163 14.2085C7.20838 14.423 7.60576 14.2621 8.01551 13.8675C7.93876 14.2927 7.90033 14.7239 7.90069 15.1559C7.90069 17.1758 8.68444 18.8079 9.64901 18.8079C10.2306 18.8079 10.5187 18.2132 10.6569 17.3036C10.7944 18.207 11.0831 18.8079 11.6606 18.8079C12.6211 18.8079 13.411 17.1751 13.411 15.1559C13.411 14.7021 13.3684 14.269 13.2955 13.8682C13.708 14.2635 14.104 14.4271 14.4821 14.2099L14.4828 14.2085ZM10.6562 8.38745C11.0463 8.39327 11.4336 8.32146 11.7956 8.17618C12.1577 8.03091 12.4872 7.81508 12.7651 7.54125C13.0429 7.26742 13.2635 6.94106 13.4141 6.58117C13.5646 6.22128 13.6421 5.83504 13.6419 5.44493C13.6418 5.05482 13.5641 4.66864 13.4133 4.30885C13.2625 3.94907 13.0417 3.62286 12.7636 3.34923C12.4856 3.07559 12.1559 2.85999 11.7937 2.71497C11.4316 2.56995 11.0442 2.49841 10.6541 2.50451C9.8818 2.51659 9.1452 2.83194 8.60339 3.38248C8.06158 3.93302 7.75804 4.67456 7.75831 5.44699C7.75858 6.21942 8.06264 6.96076 8.60484 7.51092C9.14703 8.06107 9.88385 8.37591 10.6562 8.38745ZM16.5646 10.2533C17.1928 10.235 17.7892 9.97249 18.227 9.52162C18.6649 9.07075 18.9099 8.46699 18.9099 7.83848C18.9099 7.20997 18.6649 6.6062 18.227 6.15534C17.7892 5.70447 17.1928 5.442 16.5646 5.42363C15.9239 5.42373 15.3096 5.67831 14.8566 6.13137C14.4037 6.58443 14.1493 7.19887 14.1494 7.83951C14.1495 8.48015 14.4041 9.09451 14.8571 9.54745C15.3102 10.0004 15.9246 10.2548 16.5653 10.2547L16.5646 10.2533ZM19.5071 11.7177C19.1619 11.0934 18.7398 10.5888 18.3163 10.2361C17.8097 10.6115 17.1964 10.815 16.5659 10.8171C16.0462 10.8171 15.5622 10.6748 15.1387 10.4389C15.4797 11.1904 15.6908 11.9514 15.7299 12.6321C15.7946 13.6743 15.4687 14.4471 14.8169 14.808C14.6774 14.885 14.5254 14.9371 14.368 14.962C14.3288 15.2315 14.302 15.512 14.302 15.8076C14.302 17.4666 14.9448 18.8065 15.7375 18.8065C16.2146 18.8065 16.4525 18.3184 16.5653 17.5718C16.6773 18.3143 16.9145 18.8065 17.3903 18.8065C18.1774 18.8065 18.8271 17.4659 18.8271 15.809C18.8271 15.4357 18.7907 15.0803 18.7309 14.7503C19.0691 15.0754 19.395 15.2095 19.7058 15.0308C20.3981 14.6458 20.3087 13.1621 19.5064 11.717L19.5071 11.7177ZM4.74782 10.2533C5.2253 10.253 5.69199 10.1112 6.08887 9.84574C6.48575 9.58026 6.79501 9.20307 6.97755 8.76186C7.16008 8.32064 7.2077 7.83521 7.11438 7.36693C7.02106 6.89866 6.791 6.46856 6.45327 6.13103C6.11554 5.79349 5.68531 5.56367 5.21698 5.47062C4.74865 5.37756 4.26325 5.42546 3.82214 5.60825C3.38103 5.79104 3.00401 6.10051 2.73877 6.49754C2.47352 6.89457 2.33194 7.36134 2.33194 7.83882C2.33213 8.4795 2.58671 9.09388 3.03974 9.5469C3.49276 9.99993 4.10715 10.2545 4.74782 10.2547V10.2533ZM6.49063 14.8059C5.39613 14.1975 5.29576 12.3832 6.17713 10.4376C5.7415 10.685 5.24947 10.8159 4.74851 10.8178C4.09126 10.8178 3.48901 10.5978 2.99538 10.2361C2.57257 10.5881 2.15113 11.0928 1.80463 11.7163C1.00232 13.1628 0.914319 14.6464 1.60732 15.0301C1.91669 15.2074 2.24326 15.0748 2.57944 14.7509C2.51828 15.1001 2.48722 15.4539 2.48663 15.8083C2.48663 17.4666 3.12944 18.8058 3.92213 18.8058C4.39926 18.8058 4.63713 18.3177 4.74988 17.5718C4.86332 18.3143 5.10051 18.8065 5.57488 18.8065C6.36344 18.8065 7.01176 17.4659 7.01176 15.809C7.01176 15.5113 6.98426 15.2301 6.94507 14.9606C6.78589 14.9358 6.6323 14.8832 6.49132 14.8053L6.49063 14.8059Z" fill="#00166F"/>
</svg>