<svg xmlns="http://www.w3.org/2000/svg" width="20" height="22" viewBox="0 0 24 24" fill="none">
  <path d="M17 6C18.1046 6 19 5.10457 19 4C19 2.89543 18.1046 2 17 2C15.8954 2 15 2.89543 15 4C15 5.10457 15.8954 6 17 6Z" fill="current"/>
  <path d="M15.777 10.969C16.0069 11.3107 16.3362 11.5736 16.7204 11.722C17.1045 11.8705 17.5251 11.8973 17.925 11.799L21.241 10.97L20.758 9.02995L17.442 9.85895L16.063 7.79195C15.9175 7.57299 15.7303 7.38486 15.512 7.23832C15.2938 7.09178 15.0487 6.98971 14.791 6.93795L10.945 6.16795C10.5148 6.08195 10.0682 6.13981 9.67406 6.33262C9.27994 6.52543 8.96017 6.84249 8.764 7.23495L7.106 10.551L8.895 11.446L10.553 8.12895L12.52 8.52295L7.434 17H3V19H7.434C8.132 19 8.789 18.628 9.149 18.029L11.067 14.833L16.236 15.867L18.052 21.316L19.948 20.683L18.133 15.235C18.0207 14.9006 17.8225 14.6017 17.5581 14.3683C17.2938 14.1348 16.9726 13.975 16.627 13.905L13.588 13.298L15.36 10.344L15.777 10.969Z" fill="current"/>
</svg>