<svg xmlns="http://www.w3.org/2000/svg" width="12" height="12" viewBox="0 0 12 12" fill="none">
  <g clip-path="url(#clip0_493_2315)">
    <path fill-rule="evenodd" clip-rule="evenodd" d="M1.71426 0C1.54786 0 1.3965 0.0963206 1.32603 0.247061L0.0403353 2.9971C0.00814368 3.06596 -0.00464229 3.14087 0.00148788 3.21429H0V4.02464C0 4.4734 0.194057 4.90378 0.539481 5.22111C0.884906 5.53843 1.3534 5.7167 1.84191 5.7167H2.09977C2.58827 5.7167 3.05677 5.53843 3.40219 5.22111C3.54243 5.09228 3.65772 4.94481 3.7452 4.78504C3.85376 4.6395 4.03018 4.6405 4.13205 4.7738C4.22025 4.93789 4.33765 5.08926 4.48117 5.22111C4.8266 5.53843 5.29509 5.7167 5.78359 5.7167H6.24407C6.73257 5.7167 7.20106 5.53843 7.54649 5.22111C7.68068 5.09783 7.79203 4.95749 7.87803 4.80564C7.9904 4.63071 8.18728 4.6344 8.28939 4.79764C8.376 4.95256 8.48889 5.09567 8.62543 5.22111C8.97086 5.53843 9.43937 5.7167 9.92786 5.7167H10.1581C10.6466 5.7167 11.1151 5.53843 11.4605 5.22111C11.8059 4.90378 12 4.4734 12 4.02464V3.21429H11.9984C12.0045 3.14087 11.9917 3.06596 11.9595 2.9971L10.6738 0.247061C10.6033 0.0963206 10.452 0 10.2855 0H1.71426ZM0.857143 11.1429V6.62445C1.87557 6.96101 3.08989 6.81107 3.92441 6.1654C5.03619 7.02559 6.96579 7.0256 8.07757 6.16541C8.91566 6.81382 10.1279 6.96105 11.1429 6.61653V11.1429C11.1429 11.3702 11.0525 11.5882 10.8918 11.7489C10.7311 11.9097 10.513 12 10.2857 12H9.20957V8.7516C9.20957 8.70171 9.18797 8.65389 9.14949 8.61857C9.111 8.58334 9.05889 8.5635 9.00446 8.5635H7.29661C7.24221 8.5635 7.19005 8.58334 7.15159 8.61857C7.11313 8.65389 7.09152 8.70171 7.09152 8.7516V12H1.71429C1.48695 12 1.26894 11.9097 1.10819 11.7489C0.947451 11.5882 0.857143 11.3702 0.857143 11.1429ZM2.1445 9.22363V8.14287C2.1445 7.90618 2.33638 7.7143 2.57307 7.7143H5.15651C5.3932 7.7143 5.58508 7.90618 5.58508 8.14287V9.22363C5.58508 9.46029 5.3932 9.6522 5.15651 9.6522H2.57307C2.33638 9.6522 2.1445 9.46029 2.1445 9.22363Z" fill="black"/>
  </g>
  <defs>
    <clipPath id="clip0_493_2315">
      <rect width="12" height="12" fill="white"/>
    </clipPath>
  </defs>
</svg>