<svg xmlns="http://www.w3.org/2000/svg" width="11" height="11" viewBox="0 0 11 11" fill="none">
  <g clip-path="url(#clip0_493_2318)">
    <path fill-rule="evenodd" clip-rule="evenodd" d="M0.384615 1.92308C0.384615 0.860992 1.24561 0 2.30769 0C3.36978 0 4.23077 0.860992 4.23077 1.92308C4.23077 2.98516 3.36978 3.84615 2.30769 3.84615C1.24561 3.84615 0.384615 2.98516 0.384615 1.92308ZM8.46154 0C7.39945 0 6.53846 0.860992 6.53846 1.92308C6.53846 2.98516 7.39945 3.84615 8.46154 3.84615C9.52362 3.84615 10.3846 2.98516 10.3846 1.92308C10.3846 0.860992 9.52362 0 8.46154 0ZM7.01073 5.65972C7.30575 5.10901 7.76754 4.61538 8.46154 4.61538C9.15554 4.61538 9.61731 5.10901 9.91238 5.65972C10.2114 6.21788 10.4002 6.93802 10.5228 7.62469C10.6466 8.31777 10.7079 9.007 10.7385 9.52038C10.7538 9.77777 10.7615 9.99254 10.7654 10.1435C10.7673 10.2189 10.7682 10.2785 10.7688 10.3195L10.7692 10.3669L10.7692 10.3796V10.3841C10.7692 10.3842 10.7692 10.3846 10.3846 10.3846L10.7692 10.3841C10.7692 10.5965 10.597 10.7692 10.3846 10.7692H6.53846C6.32605 10.7692 6.15385 10.597 6.15385 10.3846H6.53846C6.15385 10.3846 6.15385 10.3848 6.15385 10.3846V10.3831L6.15385 10.3796L6.15391 10.3669L6.15435 10.3195C6.15483 10.2785 6.1558 10.2189 6.15772 10.1435C6.16158 9.99254 6.16925 9.77777 6.18458 9.52038C6.21514 9.007 6.27646 8.31777 6.40022 7.62469C6.52285 6.93802 6.71172 6.21788 7.01073 5.65972ZM0 5C0 4.78758 0.172198 4.61538 0.384615 4.61538H4.23077C4.44318 4.61538 4.61538 4.78758 4.61538 5H4.23077C4.61538 5 4.61538 4.99989 4.61538 5V5.00152L4.61538 5.00499L4.61532 5.01766L4.61488 5.06505C4.6144 5.10611 4.61343 5.1657 4.6115 5.24118C4.60765 5.39208 4.59998 5.60682 4.58465 5.8642C4.55409 6.37764 4.49277 7.06685 4.36901 7.75992C4.24639 8.44662 4.05752 9.16677 3.7585 9.72492C3.46348 10.2756 3.00172 10.7692 2.30769 10.7692C1.61366 10.7692 1.15191 10.2756 0.856885 9.72492C0.557868 9.16677 0.368996 8.44662 0.246374 7.75992C0.122613 7.06685 0.0612894 6.37764 0.0307276 5.8642C0.0154071 5.60682 0.00773054 5.39208 0.00388108 5.24118C0.00195563 5.1657 0.000985562 5.10611 0.000496759 5.06505L6.50608e-05 5.01766L8.87192e-06 5.00499L0 5.00152V5C0 4.99989 0 5 0.384615 5H0Z" fill="black"/>
  </g>
  <defs>
    <clipPath id="clip0_493_2318">
      <rect width="10.7692" height="10.7692" fill="white"/>
    </clipPath>
  </defs>
</svg>